<svg width="296" height="35" viewBox="0 0 296 35" fill="none" xmlns="http://www.w3.org/2000/svg">
<path d="M5.43555 18.123V27.1406H0.162109V1.54688H10.1465C12.0684 1.54688 13.7559 1.89844 15.209 2.60156C16.6738 3.30469 17.7988 4.30664 18.584 5.60742C19.3691 6.89648 19.7617 8.36719 19.7617 10.0195C19.7617 12.5273 18.9004 14.5078 17.1777 15.9609C15.4668 17.4023 13.0938 18.123 10.0586 18.123H5.43555ZM5.43555 13.8516H10.1465C11.541 13.8516 12.6016 13.5234 13.3281 12.8672C14.0664 12.2109 14.4355 11.2734 14.4355 10.0547C14.4355 8.80078 14.0664 7.78711 13.3281 7.01367C12.5898 6.24023 11.5703 5.8418 10.2695 5.81836H5.43555V13.8516ZM33.7539 12.8848C33.0625 12.791 32.4531 12.7441 31.9258 12.7441C30.0039 12.7441 28.7441 13.3945 28.1465 14.6953V27.1406H23.0664V8.12109H27.8652L28.0059 10.3887C29.0254 8.64258 30.4375 7.76953 32.2422 7.76953C32.8047 7.76953 33.332 7.8457 33.8242 7.99805L33.7539 12.8848ZM34.791 17.4551C34.791 15.5684 35.1543 13.8867 35.8809 12.4102C36.6074 10.9336 37.6504 9.79102 39.0098 8.98242C40.3809 8.17383 41.9688 7.76953 43.7734 7.76953C46.3398 7.76953 48.4316 8.55469 50.0488 10.125C51.6777 11.6953 52.5859 13.8281 52.7734 16.5234L52.8086 17.8242C52.8086 20.7422 51.9941 23.0859 50.3652 24.8555C48.7363 26.6133 46.5508 27.4922 43.8086 27.4922C41.0664 27.4922 38.875 26.6133 37.2344 24.8555C35.6055 23.0977 34.791 20.707 34.791 17.6836V17.4551ZM39.8711 17.8242C39.8711 19.6289 40.2109 21.0117 40.8906 21.9727C41.5703 22.9219 42.543 23.3965 43.8086 23.3965C45.0391 23.3965 46 22.9277 46.6914 21.9902C47.3828 21.041 47.7285 19.5293 47.7285 17.4551C47.7285 15.6855 47.3828 14.3145 46.6914 13.3418C46 12.3691 45.0273 11.8828 43.7734 11.8828C42.5312 11.8828 41.5703 12.3691 40.8906 13.3418C40.2109 14.3027 39.8711 15.7969 39.8711 17.8242ZM67.3281 25.207C66.0742 26.7305 64.3398 27.4922 62.125 27.4922C60.0859 27.4922 58.5273 26.9062 57.4492 25.7344C56.3828 24.5625 55.8379 22.8457 55.8145 20.584V8.12109H60.8945V20.4082C60.8945 22.3887 61.7969 23.3789 63.6016 23.3789C65.3242 23.3789 66.5078 22.7812 67.1523 21.5859V8.12109H72.25V27.1406H67.4688L67.3281 25.207ZM75.291 17.4902C75.291 14.5254 75.9531 12.1641 77.2773 10.4062C78.6133 8.64844 80.4355 7.76953 82.7441 7.76953C84.5957 7.76953 86.125 8.46094 87.332 9.84375V0.140625H92.4297V27.1406H87.8418L87.5957 25.1191C86.3301 26.7012 84.7012 27.4922 82.709 27.4922C80.4707 27.4922 78.6719 26.6133 77.3125 24.8555C75.9648 23.0859 75.291 20.6309 75.291 17.4902ZM80.3711 17.8594C80.3711 19.6406 80.6816 21.0059 81.3027 21.9551C81.9238 22.9043 82.8262 23.3789 84.0098 23.3789C85.5801 23.3789 86.6875 22.7168 87.332 21.3926V13.8867C86.6992 12.5625 85.6035 11.9004 84.0449 11.9004C81.5957 11.9004 80.3711 13.8867 80.3711 17.8594ZM101.729 27.1406H96.6309V0.140625H101.729V27.1406ZM113.031 19.9512L116.547 8.12109H121.996L114.35 30.0938L113.928 31.0957C112.791 33.5801 110.916 34.8223 108.303 34.8223C107.564 34.8223 106.814 34.7109 106.053 34.4883V30.6387L106.826 30.6562C107.787 30.6562 108.502 30.5098 108.971 30.2168C109.451 29.9238 109.826 29.4375 110.096 28.7578L110.693 27.1934L104.031 8.12109H109.498L113.031 19.9512ZM150.104 17.8066C150.104 20.8535 149.453 23.2324 148.152 24.9434C146.852 26.6426 145.035 27.4922 142.703 27.4922C140.641 27.4922 138.994 26.7012 137.764 25.1191L137.535 27.1406H132.965V0.140625H138.045V9.82617C139.217 8.45508 140.758 7.76953 142.668 7.76953C144.988 7.76953 146.805 8.625 148.117 10.3359C149.441 12.0352 150.104 14.4316 150.104 17.5254V17.8066ZM145.023 17.4375C145.023 15.5156 144.719 14.1152 144.109 13.2363C143.5 12.3457 142.592 11.9004 141.385 11.9004C139.768 11.9004 138.654 12.5625 138.045 13.8867V21.3926C138.666 22.7285 139.791 23.3965 141.42 23.3965C143.061 23.3965 144.139 22.5879 144.654 20.9707C144.9 20.1973 145.023 19.0195 145.023 17.4375ZM164.271 27.1406C164.037 26.6836 163.867 26.1152 163.762 25.4355C162.531 26.8066 160.932 27.4922 158.963 27.4922C157.1 27.4922 155.553 26.9531 154.322 25.875C153.104 24.7969 152.494 23.4375 152.494 21.7969C152.494 19.7812 153.238 18.2344 154.727 17.1562C156.227 16.0781 158.389 15.5332 161.213 15.5215H163.551V14.4316C163.551 13.5527 163.322 12.8496 162.865 12.3223C162.42 11.7949 161.711 11.5312 160.738 11.5312C159.883 11.5312 159.209 11.7363 158.717 12.1465C158.236 12.5566 157.996 13.1191 157.996 13.834H152.916C152.916 12.7324 153.256 11.7129 153.936 10.7754C154.615 9.83789 155.576 9.10547 156.818 8.57812C158.061 8.03906 159.455 7.76953 161.002 7.76953C163.346 7.76953 165.203 8.36133 166.574 9.54492C167.957 10.7168 168.648 12.3691 168.648 14.502V22.7461C168.66 24.5508 168.912 25.916 169.404 26.8418V27.1406H164.271ZM160.07 23.6074C160.82 23.6074 161.512 23.4434 162.145 23.1152C162.777 22.7754 163.246 22.3242 163.551 21.7617V18.4922H161.652C159.109 18.4922 157.756 19.3711 157.592 21.1289L157.574 21.4277C157.574 22.0605 157.797 22.582 158.242 22.9922C158.688 23.4023 159.297 23.6074 160.07 23.6074ZM180.461 23.3965C181.398 23.3965 182.16 23.1387 182.746 22.623C183.332 22.1074 183.637 21.4219 183.66 20.5664H188.424C188.412 21.8555 188.061 23.0391 187.369 24.1172C186.678 25.1836 185.729 26.0156 184.521 26.6133C183.326 27.1992 182.002 27.4922 180.549 27.4922C177.83 27.4922 175.686 26.6309 174.115 24.9082C172.545 23.1738 171.76 20.7832 171.76 17.7363V17.4023C171.76 14.4727 172.539 12.1348 174.098 10.3887C175.656 8.64258 177.795 7.76953 180.514 7.76953C182.893 7.76953 184.797 8.44922 186.227 9.80859C187.668 11.1562 188.4 12.9551 188.424 15.2051H183.66C183.637 14.2207 183.332 13.4238 182.746 12.8145C182.16 12.1934 181.387 11.8828 180.426 11.8828C179.242 11.8828 178.346 12.3164 177.736 13.1836C177.139 14.0391 176.84 15.4336 176.84 17.3672V17.8945C176.84 19.8516 177.139 21.2578 177.736 22.1133C178.334 22.9688 179.242 23.3965 180.461 23.3965ZM198.232 19.5117L196.404 21.3398V27.1406H191.324V0.140625H196.404V15.0996L197.389 13.834L202.258 8.12109H208.357L201.484 16.0488L208.955 27.1406H203.119L198.232 19.5117ZM218.957 27.4922C216.168 27.4922 213.895 26.6367 212.137 24.9258C210.391 23.2148 209.518 20.9355 209.518 18.0879V17.5957C209.518 15.6855 209.887 13.9805 210.625 12.4805C211.363 10.9688 212.406 9.80859 213.754 9C215.113 8.17969 216.66 7.76953 218.395 7.76953C220.996 7.76953 223.041 8.58984 224.529 10.2305C226.029 11.8711 226.779 14.1973 226.779 17.209V19.2832H214.668C214.832 20.5254 215.324 21.5215 216.145 22.2715C216.977 23.0215 218.025 23.3965 219.291 23.3965C221.248 23.3965 222.777 22.6875 223.879 21.2695L226.375 24.0645C225.613 25.1426 224.582 25.9863 223.281 26.5957C221.98 27.1934 220.539 27.4922 218.957 27.4922ZM218.377 11.8828C217.369 11.8828 216.549 12.2227 215.916 12.9023C215.295 13.582 214.896 14.5547 214.721 15.8203H221.787V15.416C221.764 14.291 221.459 13.4238 220.873 12.8145C220.287 12.1934 219.455 11.8828 218.377 11.8828ZM228.889 17.4902C228.889 14.5254 229.551 12.1641 230.875 10.4062C232.211 8.64844 234.033 7.76953 236.342 7.76953C238.193 7.76953 239.723 8.46094 240.93 9.84375V0.140625H246.027V27.1406H241.439L241.193 25.1191C239.928 26.7012 238.299 27.4922 236.307 27.4922C234.068 27.4922 232.27 26.6133 230.91 24.8555C229.562 23.0859 228.889 20.6309 228.889 17.4902ZM233.969 17.8594C233.969 19.6406 234.279 21.0059 234.9 21.9551C235.521 22.9043 236.424 23.3789 237.607 23.3789C239.178 23.3789 240.285 22.7168 240.93 21.3926V13.8867C240.297 12.5625 239.201 11.9004 237.643 11.9004C235.193 11.9004 233.969 13.8867 233.969 17.8594ZM276.068 17.8066C276.068 20.8535 275.418 23.2324 274.117 24.9434C272.816 26.6426 271 27.4922 268.668 27.4922C266.605 27.4922 264.959 26.7012 263.729 25.1191L263.5 27.1406H258.93V0.140625H264.01V9.82617C265.182 8.45508 266.723 7.76953 268.633 7.76953C270.953 7.76953 272.77 8.625 274.082 10.3359C275.406 12.0352 276.068 14.4316 276.068 17.5254V17.8066ZM270.988 17.4375C270.988 15.5156 270.684 14.1152 270.074 13.2363C269.465 12.3457 268.557 11.9004 267.35 11.9004C265.732 11.9004 264.619 12.5625 264.01 13.8867V21.3926C264.631 22.7285 265.756 23.3965 267.385 23.3965C269.025 23.3965 270.104 22.5879 270.619 20.9707C270.865 20.1973 270.988 19.0195 270.988 17.4375ZM286.105 19.9512L289.621 8.12109H295.07L287.424 30.0938L287.002 31.0957C285.865 33.5801 283.99 34.8223 281.377 34.8223C280.639 34.8223 279.889 34.7109 279.127 34.4883V30.6387L279.9 30.6562C280.861 30.6562 281.576 30.5098 282.045 30.2168C282.525 29.9238 282.9 29.4375 283.17 28.7578L283.768 27.1934L277.105 8.12109H282.572L286.105 19.9512Z" fill="#214E41"/>
</svg>
